# xmcd CD database file
#
# Track frame offsets:
#	150
#	11275
#	28175
#	52170
#	70385
#	90795
#	101695
#	121332
#	140485
#	155510
#
# Disc length: 2305 seconds
#
# Revision: 1
# Processed by: cddbd v1.5.1PL2 Copyright (c) Steve Scherf et al.
# Submitted via: CDex 1.60beta1-cs1
#
DISCID=7f08ff0a
DTITLE=Oscar Peterson - Soul Espa単ol
DYEAR=1966
DGENRE=Jazz
TTITLE0=Mas Que Nada
TTITLE1=Manha De Carnaval
TTITLE2=Call Me
TTITLE3=How Insensitive (Insensatez)
TTITLE4=Carioca
TTITLE5=Soulville Samba
TTITLE6=Amanha (Tomorrow)
TTITLE7=Meditation
TTITLE8=Samba Sensitive
TTITLE9=Samba De Orfeo
EXTD=YEAR: 1966
EXTT0=
EXTT1=
EXTT2=
EXTT3=
EXTT4=
EXTT5=
EXTT6=
EXTT7=
EXTT8=
EXTT9=
PLAYORDER=
